<svg id="honeycomb-bg" xmlns="http://www.w3.org/2000/svg"
     viewBox="0 0 1200 400"
     preserveAspectRatio="xMidYMid slice"
     style="position:absolute;inset:0;width:100%;height:100%;pointer-events:none;z-index:0;">
  <path d="M 45.73,441.80 L 7.62,463.80 L -30.48,441.80 L -30.48,397.80 L 7.62,375.80 L 45.73,397.80 Z" fill="none" stroke="#cfba22" stroke-width="2.2" opacity="0.55"/>
  <path d="M 121.94,441.80 L 83.83,463.80 L 45.73,441.80 L 45.73,397.80 L 83.83,375.80 L 121.94,397.80 Z" fill="none" stroke="#cfba22" stroke-width="2.2" opacity="0.38"/>
  <path d="M 198.15,441.80 L 160.04,463.80 L 121.94,441.80 L 121.94,397.80 L 160.04,375.80 L 198.15,397.80 Z" fill="none" stroke="#cfba22" stroke-width="2.2" opacity="0.21"/>
  <path d="M 274.36,441.80 L 236.25,463.80 L 198.15,441.80 L 198.15,397.80 L 236.25,375.80 L 274.36,397.80 Z" fill="none" stroke="#cfba22" stroke-width="2.2" opacity="0.07"/>
  <path d="M 350.57,441.80 L 312.46,463.80 L 274.36,441.80 L 274.36,397.80 L 312.46,375.80 L 350.57,397.80 Z" fill="none" stroke="#cfba22" stroke-width="2.2" opacity="0.07"/>
  <path d="M 83.83,375.80 L 45.73,397.80 L 7.62,375.80 L 7.62,331.80 L 45.73,309.80 L 83.83,331.80 Z" fill="none" stroke="#cfba22" stroke-width="2.2" opacity="0.42"/>
  <path d="M 160.04,375.80 L 121.94,397.80 L 83.83,375.80 L 83.83,331.80 L 121.94,309.80 L 160.04,331.80 Z" fill="none" stroke="#cfba22" stroke-width="2.2" opacity="0.25"/>
  <path d="M 236.25,375.80 L 198.15,397.80 L 160.04,375.80 L 160.04,331.80 L 198.15,309.80 L 236.25,331.80 Z" fill="none" stroke="#cfba22" stroke-width="2.2" opacity="0.08"/>
  <path d="M 312.46,375.80 L 274.36,397.80 L 236.25,375.80 L 236.25,331.80 L 274.36,309.80 L 312.46,331.80 Z" fill="none" stroke="#cfba22" stroke-width="2.2" opacity="0.07"/>
  <path d="M 45.73,309.80 L 7.62,331.80 L -30.48,309.80 L -30.48,265.80 L 7.62,243.80 L 45.73,265.80 Z" fill="none" stroke="#cfba22" stroke-width="2.2" opacity="0.29"/>
  <path d="M 121.94,309.80 L 83.83,331.80 L 45.73,309.80 L 45.73,265.80 L 83.83,243.80 L 121.94,265.80 Z" fill="none" stroke="#cfba22" stroke-width="2.2" opacity="0.12"/>
  <path d="M 198.15,309.80 L 160.04,331.80 L 121.94,309.80 L 121.94,265.80 L 160.04,243.80 L 198.15,265.80 Z" fill="none" stroke="#cfba22" stroke-width="2.2" opacity="0.07"/>
  <path d="M 274.36,309.80 L 236.25,331.80 L 198.15,309.80 L 198.15,265.80 L 236.25,243.80 L 274.36,265.80 Z" fill="none" stroke="#cfba22" stroke-width="2.2" opacity="0.07"/>
  <path d="M 83.83,243.80 L 45.73,265.80 L 7.62,243.80 L 7.62,199.80 L 45.73,177.80 L 83.83,199.80 Z" fill="none" stroke="#cfba22" stroke-width="2.2" opacity="0.16"/>
  <path d="M 160.04,243.80 L 121.94,265.80 L 83.83,243.80 L 83.83,199.80 L 121.94,177.80 L 160.04,199.80 Z" fill="none" stroke="#cfba22" stroke-width="2.2" opacity="0.07"/>
  <path d="M 236.25,243.80 L 198.15,265.80 L 160.04,243.80 L 160.04,199.80 L 198.15,177.80 L 236.25,199.80 Z" fill="none" stroke="#cfba22" stroke-width="2.2" opacity="0.07"/>
  <path d="M 45.73,177.80 L 7.62,199.80 L -30.48,177.80 L -30.48,133.80 L 7.62,111.80 L 45.73,133.80 Z" fill="none" stroke="#cfba22" stroke-width="2.2" opacity="0.07"/>
  <path d="M 121.94,177.80 L 83.83,199.80 L 45.73,177.80 L 45.73,133.80 L 83.83,111.80 L 121.94,133.80 Z" fill="none" stroke="#cfba22" stroke-width="2.2" opacity="0.07"/>
  <path d="M 198.15,177.80 L 160.04,199.80 L 121.94,177.80 L 121.94,133.80 L 160.04,111.80 L 198.15,133.80 Z" fill="none" stroke="#cfba22" stroke-width="2.2" opacity="0.07"/>
  <path d="M 83.83,111.80 L 45.73,133.80 L 7.62,111.80 L 7.62,67.80 L 45.73,45.80 L 83.83,67.80 Z" fill="none" stroke="#cfba22" stroke-width="2.2" opacity="0.07"/>
  <path d="M 160.04,111.80 L 121.94,133.80 L 83.83,111.80 L 83.83,67.80 L 121.94,45.80 L 160.04,67.80 Z" fill="none" stroke="#cfba22" stroke-width="2.2" opacity="0.07"/>
  <path d="M 45.73,45.80 L 7.62,67.80 L -30.48,45.80 L -30.48,1.80 L 7.62,-20.20 L 45.73,1.80 Z" fill="none" stroke="#cfba22" stroke-width="2.2" opacity="0.07"/>
  <path d="M 121.94,45.80 L 83.83,67.80 L 45.73,45.80 L 45.73,1.80 L 83.83,-20.20 L 121.94,1.80 Z" fill="none" stroke="#cfba22" stroke-width="2.2" opacity="0.07"/>
  <path d="M 83.83,-20.20 L 45.73,1.80 L 7.62,-20.20 L 7.62,-64.20 L 45.73,-86.20 L 83.83,-64.20 Z" fill="none" stroke="#cfba22" stroke-width="2.2" opacity="0.07"/>
  <path d="M 849.43,441.80 L 811.33,463.80 L 773.22,441.80 L 773.22,397.80 L 811.33,375.80 L 849.43,397.80 Z" fill="none" stroke="#cfba22" stroke-width="2.2" opacity="0.07"/>
  <path d="M 925.64,441.80 L 887.54,463.80 L 849.43,441.80 L 849.43,397.80 L 887.54,375.80 L 925.64,397.80 Z" fill="none" stroke="#cfba22" stroke-width="2.2" opacity="0.07"/>
  <path d="M 1001.85,441.80 L 963.75,463.80 L 925.64,441.80 L 925.64,397.80 L 963.75,375.80 L 1001.85,397.80 Z" fill="none" stroke="#cfba22" stroke-width="2.2" opacity="0.13"/>
  <path d="M 1078.06,441.80 L 1039.96,463.80 L 1001.85,441.80 L 1001.85,397.80 L 1039.96,375.80 L 1078.06,397.80 Z" fill="none" stroke="#cfba22" stroke-width="2.2" opacity="0.28"/>
  <path d="M 1154.27,441.80 L 1116.17,463.80 L 1078.06,441.80 L 1078.06,397.80 L 1116.17,375.80 L 1154.27,397.80 Z" fill="none" stroke="#cfba22" stroke-width="2.2" opacity="0.43"/>
  <path d="M 1230.48,441.80 L 1192.38,463.80 L 1154.27,441.80 L 1154.27,397.80 L 1192.38,375.80 L 1230.48,397.80 Z" fill="none" stroke="#cfba22" stroke-width="2.2" opacity="0.58"/>
  <path d="M 887.54,375.80 L 849.43,397.80 L 811.33,375.80 L 811.33,331.80 L 849.43,309.80 L 887.54,331.80 Z" fill="none" stroke="#cfba22" stroke-width="2.2" opacity="0.07"/>
  <path d="M 963.75,375.80 L 925.64,397.80 L 887.54,375.80 L 887.54,331.80 L 925.64,309.80 L 963.75,331.80 Z" fill="none" stroke="#cfba22" stroke-width="2.2" opacity="0.07"/>
  <path d="M 1039.96,375.80 L 1001.85,397.80 L 963.75,375.80 L 963.75,331.80 L 1001.85,309.80 L 1039.96,331.80 Z" fill="none" stroke="#cfba22" stroke-width="2.2" opacity="0.07"/>
  <path d="M 1116.17,375.80 L 1078.06,397.80 L 1039.96,375.80 L 1039.96,331.80 L 1078.06,309.80 L 1116.17,331.80 Z" fill="none" stroke="#cfba22" stroke-width="2.2" opacity="0.16"/>
  <path d="M 1192.38,375.80 L 1154.27,397.80 L 1116.17,375.80 L 1116.17,331.80 L 1154.27,309.80 L 1192.38,331.80 Z" fill="none" stroke="#cfba22" stroke-width="2.2" opacity="0.31"/>
  <path d="M 1268.59,375.80 L 1230.48,397.80 L 1192.38,375.80 L 1192.38,331.80 L 1230.48,309.80 L 1268.59,331.80 Z" fill="none" stroke="#cfba22" stroke-width="2.2" opacity="0.46"/>
  <path d="M 849.43,309.80 L 811.33,331.80 L 773.22,309.80 L 773.22,265.80 L 811.33,243.80 L 849.43,265.80 Z" fill="none" stroke="#cfba22" stroke-width="2.2" opacity="0.07"/>
  <path d="M 925.64,309.80 L 887.54,331.80 L 849.43,309.80 L 849.43,265.80 L 887.54,243.80 L 925.64,265.80 Z" fill="none" stroke="#cfba22" stroke-width="2.2" opacity="0.07"/>
  <path d="M 1001.85,309.80 L 963.75,331.80 L 925.64,309.80 L 925.64,265.80 L 963.75,243.80 L 1001.85,265.80 Z" fill="none" stroke="#cfba22" stroke-width="2.2" opacity="0.07"/>
  <path d="M 1078.06,309.80 L 1039.96,331.80 L 1001.85,309.80 L 1001.85,265.80 L 1039.96,243.80 L 1078.06,265.80 Z" fill="none" stroke="#cfba22" stroke-width="2.2" opacity="0.07"/>
  <path d="M 1154.27,309.80 L 1116.17,331.80 L 1078.06,309.80 L 1078.06,265.80 L 1116.17,243.80 L 1154.27,265.80 Z" fill="none" stroke="#cfba22" stroke-width="2.2" opacity="0.19"/>
  <path d="M 1230.48,309.80 L 1192.38,331.80 L 1154.27,309.80 L 1154.27,265.80 L 1192.38,243.80 L 1230.48,265.80 Z" fill="none" stroke="#cfba22" stroke-width="2.2" opacity="0.34"/>
  <path d="M 963.75,243.80 L 925.64,265.80 L 887.54,243.80 L 887.54,199.80 L 925.64,177.80 L 963.75,199.80 Z" fill="none" stroke="#cfba22" stroke-width="2.2" opacity="0.07"/>
  <path d="M 1039.96,243.80 L 1001.85,265.80 L 963.75,243.80 L 963.75,199.80 L 1001.85,177.80 L 1039.96,199.80 Z" fill="none" stroke="#cfba22" stroke-width="2.2" opacity="0.07"/>
  <path d="M 1116.17,243.80 L 1078.06,265.80 L 1039.96,243.80 L 1039.96,199.80 L 1078.06,177.80 L 1116.17,199.80 Z" fill="none" stroke="#cfba22" stroke-width="2.2" opacity="0.07"/>
  <path d="M 1192.38,243.80 L 1154.27,265.80 L 1116.17,243.80 L 1116.17,199.80 L 1154.27,177.80 L 1192.38,199.80 Z" fill="none" stroke="#cfba22" stroke-width="2.2" opacity="0.07"/>
  <path d="M 1268.59,243.80 L 1230.48,265.80 L 1192.38,243.80 L 1192.38,199.80 L 1230.48,177.80 L 1268.59,199.80 Z" fill="none" stroke="#cfba22" stroke-width="2.2" opacity="0.22"/>
  <path d="M 1001.85,177.80 L 963.75,199.80 L 925.64,177.80 L 925.64,133.80 L 963.75,111.80 L 1001.85,133.80 Z" fill="none" stroke="#cfba22" stroke-width="2.2" opacity="0.07"/>
  <path d="M 1078.06,177.80 L 1039.96,199.80 L 1001.85,177.80 L 1001.85,133.80 L 1039.96,111.80 L 1078.06,133.80 Z" fill="none" stroke="#cfba22" stroke-width="2.2" opacity="0.07"/>
  <path d="M 1154.27,177.80 L 1116.17,199.80 L 1078.06,177.80 L 1078.06,133.80 L 1116.17,111.80 L 1154.27,133.80 Z" fill="none" stroke="#cfba22" stroke-width="2.2" opacity="0.07"/>
  <path d="M 1230.48,177.80 L 1192.38,199.80 L 1154.27,177.80 L 1154.27,133.80 L 1192.38,111.80 L 1230.48,133.80 Z" fill="none" stroke="#cfba22" stroke-width="2.2" opacity="0.1"/>
  <path d="M 1116.17,111.80 L 1078.06,133.80 L 1039.96,111.80 L 1039.96,67.80 L 1078.06,45.80 L 1116.17,67.80 Z" fill="none" stroke="#cfba22" stroke-width="2.2" opacity="0.07"/>
  <path d="M 1192.38,111.80 L 1154.27,133.80 L 1116.17,111.80 L 1116.17,67.80 L 1154.27,45.80 L 1192.38,67.80 Z" fill="none" stroke="#cfba22" stroke-width="2.2" opacity="0.07"/>
  <path d="M 1268.59,111.80 L 1230.48,133.80 L 1192.38,111.80 L 1192.38,67.80 L 1230.48,45.80 L 1268.59,67.80 Z" fill="none" stroke="#cfba22" stroke-width="2.2" opacity="0.07"/>
  <path d="M 1154.27,45.80 L 1116.17,67.80 L 1078.06,45.80 L 1078.06,1.80 L 1116.17,-20.20 L 1154.27,1.80 Z" fill="none" stroke="#cfba22" stroke-width="2.2" opacity="0.07"/>
  <path d="M 1230.48,45.80 L 1192.38,67.80 L 1154.27,45.80 L 1154.27,1.80 L 1192.38,-20.20 L 1230.48,1.80 Z" fill="none" stroke="#cfba22" stroke-width="2.2" opacity="0.07"/>
  <path d="M 1268.59,-20.20 L 1230.48,1.80 L 1192.38,-20.20 L 1192.38,-64.20 L 1230.48,-86.20 L 1268.59,-64.20 Z" fill="none" stroke="#cfba22" stroke-width="2.2" opacity="0.07"/>
  <path d="M 566.11,448.40 L 528.00,470.40 L 489.89,448.40 L 489.89,404.40 L 528.00,382.40 L 566.11,404.40 Z" fill="none" stroke="#cfba22" stroke-width="2.2" opacity="0.26"/>
  <path d="M 642.32,448.40 L 604.21,470.40 L 566.11,448.40 L 566.11,404.40 L 604.21,382.40 L 642.32,404.40 Z" fill="none" stroke="#cfba22" stroke-width="2.2" opacity="0.16"/>
  <path d="M 718.53,448.40 L 680.42,470.40 L 642.32,448.40 L 642.32,404.40 L 680.42,382.40 L 718.53,404.40 Z" fill="none" stroke="#cfba22" stroke-width="2.2" opacity="0.07"/>
  <path d="M 604.21,382.40 L 566.11,404.40 L 528.00,382.40 L 528.00,338.40 L 566.11,316.40 L 604.21,338.40 Z" fill="none" stroke="#cfba22" stroke-width="2.2" opacity="0.12"/>
  <path d="M 680.42,382.40 L 642.32,404.40 L 604.21,382.40 L 604.21,338.40 L 642.32,316.40 L 680.42,338.40 Z" fill="none" stroke="#cfba22" stroke-width="2.2" opacity="0.07"/>
  <path d="M 756.63,382.40 L 718.53,404.40 L 680.42,382.40 L 680.42,338.40 L 718.53,316.40 L 756.63,338.40 Z" fill="none" stroke="#cfba22" stroke-width="2.2" opacity="0.07"/>
  <path d="M 642.32,316.40 L 604.21,338.40 L 566.11,316.40 L 566.11,272.40 L 604.21,250.40 L 642.32,272.40 Z" fill="none" stroke="#cfba22" stroke-width="2.2" opacity="0.07"/>
  <path d="M 718.53,316.40 L 680.42,338.40 L 642.32,316.40 L 642.32,272.40 L 680.42,250.40 L 718.53,272.40 Z" fill="none" stroke="#cfba22" stroke-width="2.2" opacity="0.07"/>
  <path d="M 680.42,250.40 L 642.32,272.40 L 604.21,250.40 L 604.21,206.40 L 642.32,184.40 L 680.42,206.40 Z" fill="none" stroke="#cfba22" stroke-width="2.2" opacity="0.07"/>
</svg>